<svg xmlns="http://www.w3.org/2000/svg" xmlns:xlink="http://www.w3.org/1999/xlink" viewBox="0 0 222.46 234.11"><defs><linearGradient id="f129cb41-2668-44b9-abea-fd19c189cbb2" x1="164.29" y1="49.97" x2="101.2" y2="128" gradientUnits="userSpaceOnUse"><stop offset="0" stop-color="#00ff5a"/><stop offset="1" stop-color="#00b2ab"/></linearGradient><linearGradient id="ebb277c8-5240-435f-89c6-cc9e9bce7ed9" x1="183.65" y1="92.2" x2="137.17" y2="201.22" xlink:href="#f129cb41-2668-44b9-abea-fd19c189cbb2"/><linearGradient id="a64f4553-02a3-41ed-992e-a6aa8b3c9359" x1="96.75" y1="130.72" x2="149.32" y2="186.61" gradientUnits="userSpaceOnUse"><stop offset="0" stop-color="#7f738d"/><stop offset="1" stop-color="#e4d9ff" stop-opacity="0"/></linearGradient><linearGradient id="bfd6b609-60d1-48ec-8c9a-ffbfb4201d3c" x1="164.29" y1="88.15" x2="169.48" y2="211.04" xlink:href="#a64f4553-02a3-41ed-992e-a6aa8b3c9359"/><linearGradient id="ee550760-92bb-492f-963a-d841eb381a44" x1="90.47" y1="177.43" x2="150.78" y2="106.05" xlink:href="#f129cb41-2668-44b9-abea-fd19c189cbb2"/><linearGradient id="a1a61ae7-ecac-433e-aecc-9ea6f48673ef" x1="96.18" y1="100.26" x2="147.22" y2="32.61" xlink:href="#a64f4553-02a3-41ed-992e-a6aa8b3c9359"/><linearGradient id="f8d430e2-c386-4487-aaa6-1c862769780a" x1="106.9" y1="30.93" x2="111.05" y2="129.29" xlink:href="#a64f4553-02a3-41ed-992e-a6aa8b3c9359"/><linearGradient id="a798a131-a5ce-416b-a3dc-c56ca41da6e1" x1="113.73" y1="97.41" x2="117.36" y2="183.57" xlink:href="#a64f4553-02a3-41ed-992e-a6aa8b3c9359"/></defs><g style="isolation:isolate"><g id="ad162834-3e2d-49b6-890e-445a71a6b9c3" data-name="Camada 1"><path d="M70.12,256.63a1,1,0,0,1,.7.3.94.94,0,0,1,.29.69v1.32a1,1,0,0,1-1,1H55.35a1,1,0,0,1-1-1V235.31a.94.94,0,0,1,.29-.69,1,1,0,0,1,.7-.3H69.83a1,1,0,0,1,.7.3.94.94,0,0,1,.29.69v1.32a.94.94,0,0,1-.29.69,1,1,0,0,1-.7.3h-12v7.71H69a1,1,0,0,1,.69.29.94.94,0,0,1,.29.7v1.32a.91.91,0,0,1-.29.69.92.92,0,0,1-.69.29H57.84v8Z" transform="translate(-37.5 -33.86)" style="fill:#073c45"/><path d="M84.61,260.29A7.09,7.09,0,0,1,81,259.5a6.65,6.65,0,0,1-2-1.7v8.09a1,1,0,0,1-.29.69.94.94,0,0,1-.7.29H76.6a.94.94,0,0,1-.7-.29,1,1,0,0,1-.29-.69v-24a1,1,0,0,1,.29-.69.94.94,0,0,1,.7-.29H78a.94.94,0,0,1,.7.29,1,1,0,0,1,.29.69V243A6.41,6.41,0,0,1,81,241.29a7.4,7.4,0,0,1,3.59-.75,8.47,8.47,0,0,1,3.2.6,7.84,7.84,0,0,1,2.58,1.74,8.64,8.64,0,0,1,1.75,2.74,11.1,11.1,0,0,1,.77,3.63c0,.36,0,.76,0,1.18s0,.83,0,1.19a11,11,0,0,1-.77,3.62A8.37,8.37,0,0,1,90.39,258a7.78,7.78,0,0,1-2.58,1.72A8.47,8.47,0,0,1,84.61,260.29Zm-5.67-11.45c0,.37,0,.85,0,1.45s0,1.08,0,1.44a5.71,5.71,0,0,0,1.55,4,5.15,5.15,0,0,0,3.75,1.41,4.87,4.87,0,0,0,3.8-1.54,6.55,6.55,0,0,0,1.54-4.17c0-.68,0-1.37,0-2.05A6.57,6.57,0,0,0,88,245.22a4.86,4.86,0,0,0-3.8-1.53,5.19,5.19,0,0,0-3.73,1.39A5.29,5.29,0,0,0,78.94,248.84Z" transform="translate(-37.5 -33.86)" style="fill:#073c45"/><path d="M101.17,237a.91.91,0,0,1-.29.69.93.93,0,0,1-.69.3H98.1a1,1,0,0,1-1-1V235a1,1,0,0,1,.3-.7.94.94,0,0,1,.69-.29h2.09a1,1,0,0,1,.69.29.94.94,0,0,1,.29.7Zm-.36,21.91a1,1,0,0,1-1,1H98.47a1,1,0,0,1-1-1V241.89a1,1,0,0,1,.29-.69.94.94,0,0,1,.7-.29h1.35a.94.94,0,0,1,.7.29,1,1,0,0,1,.29.69Z" transform="translate(-37.5 -33.86)" style="fill:#073c45"/><path d="M108.74,251.7a7.68,7.68,0,0,0,.64,2.48,5.59,5.59,0,0,0,1.21,1.69,4.67,4.67,0,0,0,1.59,1,5.28,5.28,0,0,0,1.79.32,6.33,6.33,0,0,0,3-.66,4.41,4.41,0,0,0,1.94-2.2,1.9,1.9,0,0,1,.53-.78,1.08,1.08,0,0,1,.68-.21h1.1a1,1,0,0,1,.71.3.77.77,0,0,1,.27.69,4.65,4.65,0,0,1-.56,1.92,6.44,6.44,0,0,1-1.58,1.94,9.11,9.11,0,0,1-6.09,2.14,9,9,0,0,1-3.56-.66,7.71,7.71,0,0,1-2.64-1.79,8.53,8.53,0,0,1-1.68-2.67,9.89,9.89,0,0,1-.67-3.29c0-.39,0-.87-.06-1.45a13.25,13.25,0,0,1,.81-4.77,8.3,8.3,0,0,1,1.66-2.67,7.68,7.68,0,0,1,2.6-1.79,8.87,8.87,0,0,1,3.54-.66,9.11,9.11,0,0,1,6.09,2.14,6.44,6.44,0,0,1,1.58,1.94,4.65,4.65,0,0,1,.56,1.92.77.77,0,0,1-.27.69,1,1,0,0,1-.71.3h-1.1a1.14,1.14,0,0,1-.68-.2,2,2,0,0,1-.53-.79,4.41,4.41,0,0,0-1.94-2.2,6.45,6.45,0,0,0-3-.65,5.43,5.43,0,0,0-1.81.31,4.69,4.69,0,0,0-1.61,1,5.64,5.64,0,0,0-1.2,1.68,7,7,0,0,0-.61,2.49A15.62,15.62,0,0,0,108.74,251.7Z" transform="translate(-37.5 -33.86)" style="fill:#073c45"/><path d="M140.2,238.9h-12a1,1,0,0,1-1-1v-2.6a1,1,0,0,1,1-1h16a.93.93,0,0,1,.69.3.91.91,0,0,1,.29.69v15.47c0,3.15-.87,5.52-2.63,7.11s-4.27,2.4-7.53,2.4a13.86,13.86,0,0,1-4.48-.64,8.86,8.86,0,0,1-3.11-1.74,7.15,7.15,0,0,1-1.85-2.56,9.55,9.55,0,0,1-.73-3.14.8.8,0,0,1,.27-.71,1,1,0,0,1,.72-.28h3a1.19,1.19,0,0,1,.6.18.81.81,0,0,1,.39.52,4.85,4.85,0,0,0,.51,1.42,4.13,4.13,0,0,0,1,1.23,4.67,4.67,0,0,0,1.53.84,6.79,6.79,0,0,0,2.2.31,5.31,5.31,0,0,0,3.87-1.32,5.1,5.1,0,0,0,1.36-3.84Z" transform="translate(-37.5 -33.86)" style="fill:#073c45"/><path d="M150.14,241.89a.93.93,0,0,1,.3-.69.91.91,0,0,1,.69-.29h2.78a.94.94,0,0,1,.7.29,1,1,0,0,1,.29.69v9.29a6,6,0,0,0,.93,3.52,3.5,3.5,0,0,0,3.06,1.31,3.54,3.54,0,0,0,3-1.31,5.6,5.6,0,0,0,1-3.52v-9.29a1,1,0,0,1,.29-.69.94.94,0,0,1,.7-.29h2.78a.91.91,0,0,1,.69.29.93.93,0,0,1,.3.69v17.05a.92.92,0,0,1-.3.69.91.91,0,0,1-.69.29h-2.78a1,1,0,0,1-1-1v-.84a8.92,8.92,0,0,1-2.08,1.51,6.21,6.21,0,0,1-3,.68,8.7,8.7,0,0,1-3.7-.69,6.32,6.32,0,0,1-2.34-1.87,7.29,7.29,0,0,1-1.24-2.72,14.52,14.52,0,0,1-.37-3.28Z" transform="translate(-37.5 -33.86)" style="fill:#073c45"/><path d="M190.52,258.94a1,1,0,0,1-1,1h-2.78a.92.92,0,0,1-.69-.29.91.91,0,0,1-.29-.69v-9.29a5.55,5.55,0,0,0-1-3.51,3.72,3.72,0,0,0-3.14-1.32,3.8,3.8,0,0,0-3.06,1.32,5.24,5.24,0,0,0-1.11,3.51v9.29a.92.92,0,0,1-.3.69.91.91,0,0,1-.69.29h-2.78a.91.91,0,0,1-.69-.29.92.92,0,0,1-.3-.69V241.89a.93.93,0,0,1,.3-.69.91.91,0,0,1,.69-.29h2.78a.91.91,0,0,1,.69.29.93.93,0,0,1,.3.69v.85a8,8,0,0,1,2.23-1.58,6.91,6.91,0,0,1,3-.62,8.74,8.74,0,0,1,3.73.7,6.41,6.41,0,0,1,2.42,1.86,7.2,7.2,0,0,1,1.3,2.73,13.82,13.82,0,0,1,.38,3.27Z" transform="translate(-37.5 -33.86)" style="fill:#073c45"/><path d="M203.69,263.58a5.5,5.5,0,0,0,1.57-.24,4.14,4.14,0,0,0,1.46-.75,4,4,0,0,0,1.08-1.29,3.89,3.89,0,0,0,.42-1.85V258.1a6.19,6.19,0,0,1-.77.71,5.66,5.66,0,0,1-1.15.71,8,8,0,0,1-1.57.55,8.42,8.42,0,0,1-2,.22,7.61,7.61,0,0,1-3.31-.71,7.83,7.83,0,0,1-2.52-1.9,9.07,9.07,0,0,1-1.65-2.75,10.13,10.13,0,0,1-.68-3.23c0-.37,0-.8,0-1.28s0-.92,0-1.28a10.19,10.19,0,0,1,.68-3.24,8.91,8.91,0,0,1,1.65-2.74,7.72,7.72,0,0,1,2.52-1.91,7.61,7.61,0,0,1,3.31-.71,8.42,8.42,0,0,1,2,.22,8,8,0,0,1,1.57.55,6.06,6.06,0,0,1,1.92,1.43v-.85a1,1,0,0,1,.29-.69.94.94,0,0,1,.7-.29H212a.91.91,0,0,1,.69.29.93.93,0,0,1,.3.69v17.16c0,2.95-.83,5.17-2.47,6.67a9.76,9.76,0,0,1-6.82,2.25,11.57,11.57,0,0,1-3.46-.49,9.82,9.82,0,0,1-2.76-1.32,7.22,7.22,0,0,1-1.87-1.87,4.35,4.35,0,0,1-.77-2.13.84.84,0,0,1,.28-.7,1,1,0,0,1,.71-.29h2.49a1.21,1.21,0,0,1,.88.35c.24.23.45.44.62.64a3.65,3.65,0,0,0,1.3,1A6.18,6.18,0,0,0,203.69,263.58Zm-4.39-14.19a8.79,8.79,0,0,0,0,2.05,4.8,4.8,0,0,0,1.46,3.42,4.59,4.59,0,0,0,3,1,4.41,4.41,0,0,0,3-1.06,4.35,4.35,0,0,0,1.41-3,13.84,13.84,0,0,0,0-2.78,4.4,4.4,0,0,0-1.41-3,4.35,4.35,0,0,0-3-1.1,4.59,4.59,0,0,0-3,1A4.84,4.84,0,0,0,199.3,249.39Z" transform="translate(-37.5 -33.86)" style="fill:#073c45"/><path d="M222.78,258.94a.92.92,0,0,1-.3.69.91.91,0,0,1-.69.29H219a1,1,0,0,1-1-1V235a1,1,0,0,1,1-1h2.78a.94.94,0,0,1,.69.29,1,1,0,0,1,.3.7Z" transform="translate(-37.5 -33.86)" style="fill:#073c45"/><path d="M226.87,250.42a11.88,11.88,0,0,1,.62-3.86,9.23,9.23,0,0,1,1.8-3.15,8.34,8.34,0,0,1,2.83-2.1,8.8,8.8,0,0,1,3.71-.77,8.91,8.91,0,0,1,3.71.75,8.7,8.7,0,0,1,2.84,2,9,9,0,0,1,1.81,3,10,10,0,0,1,.64,3.57v1.65a1,1,0,0,1-1,1H231.63A3.09,3.09,0,0,0,232,254a3.44,3.44,0,0,0,.94,1.07,3.87,3.87,0,0,0,1.35.66,5.51,5.51,0,0,0,1.57.22,6.19,6.19,0,0,0,1.9-.24,3.91,3.91,0,0,0,1.21-.6,3.84,3.84,0,0,1,.66-.4,1.66,1.66,0,0,1,.69-.11h2.93a1,1,0,0,1,.71.29.84.84,0,0,1,.28.7,3.09,3.09,0,0,1-.57,1.31,6.26,6.26,0,0,1-1.59,1.58,10.17,10.17,0,0,1-2.62,1.31,10.64,10.64,0,0,1-3.6.55,9.44,9.44,0,0,1-3.71-.71,7.91,7.91,0,0,1-2.83-2,9,9,0,0,1-1.8-3.13A12.38,12.38,0,0,1,226.87,250.42Zm9-5.49a4.66,4.66,0,0,0-1.81.31,4.18,4.18,0,0,0-1.26.8,3.83,3.83,0,0,0-1.13,2.25h8.26a6.77,6.77,0,0,0-.27-1.15A3.29,3.29,0,0,0,239,246a3.6,3.6,0,0,0-1.21-.8A5,5,0,0,0,235.83,244.93Z" transform="translate(-37.5 -33.86)" style="fill:#073c45"/><path d="M137,115.59c40.63-1.37,64.6-11.87,67.35-37.31,3.32-30.77-29.6-54.83-75.1-39.84-20.47,6.75-38.35,23.85-49,45.22-19.85,6-36.51,20-42.75,51.84C47.09,129.05,58,124.8,70,122c11.82-2.8,24.76-4.25,38.72-5.14C117.71,116.27,127.16,115.91,137,115.59Zm26.86-64.44c22.64-.73,20.38,22.92-4.75,27.13-10.92,1.82-25.1,1-39.95,1C130.62,61.65,149.32,51.62,163.85,51.15Z" transform="translate(-37.5 -33.86)" style="fill:url(#f129cb41-2668-44b9-abea-fd19c189cbb2)"/><path d="M260,118.87c-31.13,16.63-17,56.9-61.43,86.37-22.76,15.08-80.32,19.14-114.55-32q-1.75-2.61-3.27-5.29a81.89,81.89,0,0,1-8.27-20.54v0c10.94-7.38,24.77-10.73,39-12.68a45.67,45.67,0,0,0,12.16,20.45c15.41,14.7,39.76,15.2,58.55,8C213.46,151.27,229.83,109.65,260,118.87Z" transform="translate(-37.5 -33.86)" style="fill:url(#ebb277c8-5240-435f-89c6-cc9e9bce7ed9)"/><path d="M198.52,205.24c-22.76,15.08-80.32,19.14-114.55-32q-1.75-2.61-3.27-5.29a81.89,81.89,0,0,1-8.27-20.54v0c10.94-7.38,24.77-10.73,39-12.68a45.67,45.67,0,0,0,12.16,20.45c15.41,14.7,39.76,15.2,58.55,8Z" transform="translate(-37.5 -33.86)" style="mix-blend-mode:multiply;fill:url(#a64f4553-02a3-41ed-992e-a6aa8b3c9359)"/><path d="M260,118.87c-31.13,16.63-17,56.89-61.43,86.36-22.75,15.09-80.31,19.15-114.55-32-1.17-1.74-2.26-3.49-3.27-5.28a82.48,82.48,0,0,1-8.27-20.55h0c10.94-7.38,24.77-10.73,39-12.68a45.55,45.55,0,0,0,12.16,20.45c-30.53,18.61,12,44.68,51.28,33.92C226.45,175,223.83,118.87,260,118.87Z" transform="translate(-37.5 -33.86)" style="mix-blend-mode:multiply;fill:url(#bfd6b609-60d1-48ec-8c9a-ffbfb4201d3c)"/><path d="M182.13,118.87c-8.09,23.41-31.9,29.88-58.55,36.33C109.44,158.63,94.5,162.05,80.7,168c-11.33,4.88-21.88,11.46-30.61,21.14,1.94-20.91,10.44-33.68,22.34-41.68v0c10.94-7.38,24.77-10.73,39-12.68C140,130.85,170.22,132.61,182.13,118.87Z" transform="translate(-37.5 -33.86)" style="fill:url(#ee550760-92bb-492f-963a-d841eb381a44)"/><path d="M163.85,51.15c-14.53.47-33.23,10.5-44.7,28.09-13,0-26.58.67-38.9,4.42,10.64-21.37,28.52-38.47,49-45.22,17.06-5.62,32.35-5.75,44.63-2.09" transform="translate(-37.5 -33.86)" style="mix-blend-mode:multiply;fill:url(#a1a61ae7-ecac-433e-aecc-9ea6f48673ef)"/><path d="M135.47,96.27c-43.4,1.46-73.22-1.12-98,39.23,6.24-31.9,22.9-45.84,42.75-51.84,12.32-3.76,25.86-4.42,38.9-4.42,14.86,0,29,.86,39.95-1,17.71-3,24.06-15.59,18.34-22.53C190.22,69.53,177.88,94.84,135.47,96.27Z" transform="translate(-37.5 -33.86)" style="mix-blend-mode:multiply;fill:url(#f8d430e2-c386-4487-aaa6-1c862769780a)"/><path d="M182.14,118.87c-26.22,39.84-109.71,8.79-132,70.25,1.93-20.9,10.43-33.68,22.33-41.68h0c10.94-7.38,24.77-10.73,39-12.68C140,130.85,170.22,132.6,182.14,118.87Z" transform="translate(-37.5 -33.86)" style="mix-blend-mode:multiply;fill:url(#a798a131-a5ce-416b-a3dc-c56ca41da6e1)"/></g></g></svg>